<?xml version="1.0" encoding="UTF-8"?>
<svg xmlns="http://www.w3.org/2000/svg" xmlns:xlink="http://www.w3.org/1999/xlink" width="32pt" height="32pt" viewBox="0 0 32 32" version="1.1">
<g id="surface1">
<path style=" stroke:none;fill-rule:nonzero;fill:rgb(0%,0%,0%);fill-opacity:1;" d="M 0.183594 16.097656 L 0.183594 31.921875 L 8.835938 31.871094 C 13.589844 31.835938 20.726562 31.808594 24.6875 31.808594 L 31.890625 31.808594 L 31.890625 0.261719 L 0.183594 0.261719 Z M 10.628906 11.78125 C 10.523438 12.183594 10.003906 14.1875 9.46875 16.253906 C 8.539062 19.824219 8.484375 20 8.332031 20.027344 C 8.246094 20.042969 8.171875 20.027344 8.171875 19.992188 C 8.171875 19.949219 8.6875 17.925781 9.328125 15.496094 C 10.457031 11.128906 10.476562 11.066406 10.640625 11.066406 L 10.8125 11.066406 Z M 15.144531 11.371094 C 16.078125 11.652344 16.859375 12.503906 17.136719 13.550781 C 17.652344 15.503906 17.316406 17.726562 16.324219 18.832031 C 15.550781 19.710938 15.046875 19.871094 12.921875 19.871094 C 11.527344 19.871094 11.304688 19.851562 11.304688 19.738281 C 11.304688 19.652344 11.367188 19.609375 11.484375 19.609375 C 11.582031 19.609375 11.722656 19.53125 11.804688 19.441406 L 11.949219 19.277344 L 11.949219 15.574219 C 11.949219 11.476562 11.96875 11.632812 11.546875 11.539062 C 11.402344 11.503906 11.304688 11.433594 11.304688 11.363281 C 11.304688 11.179688 14.542969 11.191406 15.144531 11.371094 Z M 21.746094 15.136719 C 22.335938 17.289062 22.863281 19.144531 22.929688 19.277344 C 22.992188 19.40625 23.097656 19.539062 23.164062 19.5625 C 23.230469 19.597656 23.289062 19.6875 23.289062 19.765625 C 23.289062 19.894531 23.164062 19.914062 21.964844 19.914062 C 20.785156 19.914062 20.644531 19.894531 20.644531 19.773438 C 20.644531 19.675781 20.71875 19.617188 20.890625 19.574219 C 21.273438 19.484375 21.296875 19.320312 21.070312 18.414062 C 20.964844 17.996094 20.824219 17.421875 20.753906 17.140625 L 20.632812 16.636719 L 19.703125 16.664062 L 18.777344 16.6875 L 18.566406 17.515625 C 18.316406 18.542969 18.285156 19.128906 18.488281 19.363281 C 18.566406 19.449219 18.742188 19.546875 18.875 19.574219 C 19.035156 19.617188 19.109375 19.667969 19.097656 19.757812 C 19.085938 19.851562 18.90625 19.886719 18.199219 19.894531 C 17.449219 19.914062 17.328125 19.894531 17.328125 19.78125 C 17.328125 19.703125 17.40625 19.574219 17.511719 19.496094 C 17.609375 19.40625 17.761719 19.171875 17.84375 18.972656 C 17.921875 18.769531 18.4375 16.976562 18.984375 14.988281 C 19.53125 13.003906 19.992188 11.347656 20.011719 11.304688 C 20.023438 11.269531 20.183594 11.242188 20.355469 11.242188 L 20.683594 11.242188 Z M 7.214844 12.976562 L 7.304688 13.21875 L 5.5625 14.378906 L 3.808594 15.539062 L 5.117188 16.402344 C 5.832031 16.878906 6.625 17.402344 6.871094 17.558594 C 7.304688 17.847656 7.3125 17.855469 7.238281 18.074219 C 7.203125 18.195312 7.144531 18.300781 7.121094 18.300781 C 6.992188 18.300781 2.949219 15.5625 2.992188 15.503906 C 3.027344 15.460938 6.972656 12.800781 7.109375 12.730469 C 7.113281 12.722656 7.164062 12.835938 7.214844 12.976562 Z M 26.566406 14.449219 C 27.410156 15.007812 28.09375 15.503906 28.074219 15.554688 C 28.050781 15.644531 24.074219 18.300781 23.976562 18.300781 C 23.945312 18.300781 23.890625 18.203125 23.851562 18.082031 C 23.773438 17.828125 23.488281 18.046875 26.082031 16.339844 C 26.726562 15.921875 27.257812 15.5625 27.269531 15.554688 C 27.273438 15.546875 26.496094 15.015625 25.535156 14.378906 L 23.785156 13.21875 L 23.878906 12.976562 L 23.964844 12.730469 L 24.496094 13.082031 C 24.796875 13.273438 25.726562 13.890625 26.566406 14.449219 Z M 26.566406 14.449219 "/>
<path style=" stroke:none;fill-rule:nonzero;fill:rgb(0%,0%,0%);fill-opacity:1;" d="M 13.546875 11.722656 L 13.394531 11.929688 L 13.394531 19.179688 L 13.546875 19.390625 C 13.664062 19.5625 13.757812 19.609375 13.996094 19.609375 C 14.828125 19.609375 15.429688 18.988281 15.667969 17.890625 C 15.964844 16.550781 15.957031 14.441406 15.660156 13.167969 C 15.410156 12.113281 14.808594 11.503906 13.996094 11.503906 C 13.757812 11.503906 13.664062 11.546875 13.546875 11.722656 Z M 13.546875 11.722656 "/>
<path style=" stroke:none;fill-rule:nonzero;fill:rgb(0%,0%,0%);fill-opacity:1;" d="M 19.6875 13.375 C 19.660156 13.472656 19.464844 14.179688 19.257812 14.945312 L 18.882812 16.339844 L 19.679688 16.367188 C 20.117188 16.375 20.492188 16.375 20.503906 16.347656 C 20.523438 16.332031 20.351562 15.617188 20.136719 14.753906 C 19.828125 13.578125 19.722656 13.246094 19.6875 13.375 Z M 19.6875 13.375 "/>
</g>
</svg>
