<?xml version="1.0" encoding="UTF-8"?>
<svg xmlns="http://www.w3.org/2000/svg" xmlns:xlink="http://www.w3.org/1999/xlink" width="16pt" height="16pt" viewBox="0 0 16 16" version="1.1">
<g id="surface1">
<path style=" stroke:none;fill-rule:nonzero;fill:rgb(0%,0%,0%);fill-opacity:1;" d="M 0.09375 8.046875 L 0.09375 15.960938 L 4.417969 15.933594 C 6.796875 15.917969 10.363281 15.902344 12.34375 15.902344 L 15.945312 15.902344 L 15.945312 0.128906 L 0.09375 0.128906 Z M 5.316406 5.890625 C 5.261719 6.089844 5 7.09375 4.734375 8.125 C 4.269531 9.914062 4.242188 10 4.164062 10.011719 C 4.121094 10.023438 4.085938 10.011719 4.085938 9.996094 C 4.085938 9.972656 4.34375 8.964844 4.664062 7.746094 C 5.230469 5.5625 5.238281 5.535156 5.320312 5.535156 L 5.40625 5.535156 Z M 7.574219 5.6875 C 8.039062 5.824219 8.429688 6.253906 8.566406 6.777344 C 8.828125 7.75 8.65625 8.863281 8.164062 9.417969 C 7.777344 9.855469 7.523438 9.933594 6.460938 9.933594 C 5.761719 9.933594 5.652344 9.925781 5.652344 9.871094 C 5.652344 9.824219 5.683594 9.804688 5.742188 9.804688 C 5.792969 9.804688 5.863281 9.765625 5.902344 9.722656 L 5.976562 9.636719 L 5.976562 7.785156 C 5.976562 5.738281 5.984375 5.816406 5.773438 5.769531 C 5.703125 5.75 5.652344 5.714844 5.652344 5.683594 C 5.652344 5.589844 7.273438 5.59375 7.574219 5.6875 Z M 10.871094 7.570312 C 11.167969 8.644531 11.433594 9.574219 11.464844 9.636719 C 11.496094 9.703125 11.546875 9.769531 11.582031 9.78125 C 11.617188 9.800781 11.644531 9.84375 11.644531 9.882812 C 11.644531 9.949219 11.582031 9.957031 10.984375 9.957031 C 10.394531 9.957031 10.324219 9.949219 10.324219 9.886719 C 10.324219 9.839844 10.359375 9.808594 10.445312 9.785156 C 10.636719 9.742188 10.648438 9.660156 10.535156 9.207031 C 10.480469 8.996094 10.410156 8.710938 10.378906 8.570312 L 10.316406 8.316406 L 9.851562 8.332031 L 9.386719 8.34375 L 9.285156 8.757812 C 9.160156 9.273438 9.144531 9.5625 9.246094 9.683594 C 9.285156 9.726562 9.371094 9.773438 9.4375 9.785156 C 9.519531 9.808594 9.554688 9.835938 9.546875 9.878906 C 9.542969 9.925781 9.453125 9.941406 9.101562 9.949219 C 8.726562 9.957031 8.664062 9.949219 8.664062 9.890625 C 8.664062 9.851562 8.703125 9.785156 8.753906 9.746094 C 8.804688 9.703125 8.882812 9.585938 8.921875 9.484375 C 8.960938 9.386719 9.21875 8.488281 9.492188 7.496094 C 9.765625 6.5 9.996094 5.671875 10.007812 5.652344 C 10.011719 5.632812 10.09375 5.621094 10.179688 5.621094 L 10.339844 5.621094 Z M 3.605469 6.488281 L 3.652344 6.609375 L 2.78125 7.191406 L 1.90625 7.769531 L 2.558594 8.199219 C 2.914062 8.441406 3.3125 8.703125 3.433594 8.78125 C 3.652344 8.921875 3.65625 8.929688 3.617188 9.035156 C 3.601562 9.097656 3.574219 9.148438 3.5625 9.148438 C 3.496094 9.148438 1.476562 7.78125 1.496094 7.75 C 1.515625 7.730469 3.488281 6.402344 3.554688 6.367188 C 3.558594 6.363281 3.582031 6.417969 3.605469 6.488281 Z M 13.285156 7.222656 C 13.703125 7.503906 14.046875 7.75 14.035156 7.777344 C 14.023438 7.820312 12.035156 9.148438 11.988281 9.148438 C 11.972656 9.148438 11.945312 9.101562 11.925781 9.042969 C 11.886719 8.914062 11.746094 9.023438 13.042969 8.171875 C 13.363281 7.960938 13.628906 7.78125 13.632812 7.777344 C 13.636719 7.773438 13.246094 7.507812 12.769531 7.191406 L 11.890625 6.609375 L 11.9375 6.488281 L 11.980469 6.367188 L 12.25 6.539062 C 12.398438 6.636719 12.863281 6.945312 13.285156 7.222656 Z M 13.285156 7.222656 "/>
<path style=" stroke:none;fill-rule:nonzero;fill:rgb(0%,0%,0%);fill-opacity:1;" d="M 6.773438 5.859375 L 6.699219 5.964844 L 6.699219 9.589844 L 6.773438 9.695312 C 6.832031 9.78125 6.878906 9.804688 7 9.804688 C 7.414062 9.804688 7.714844 9.496094 7.835938 8.945312 C 7.980469 8.273438 7.976562 7.21875 7.832031 6.582031 C 7.703125 6.058594 7.402344 5.75 7 5.75 C 6.878906 5.75 6.832031 5.773438 6.773438 5.859375 Z M 6.773438 5.859375 "/>
<path style=" stroke:none;fill-rule:nonzero;fill:rgb(0%,0%,0%);fill-opacity:1;" d="M 9.84375 6.6875 C 9.832031 6.738281 9.734375 7.089844 9.628906 7.472656 L 9.441406 8.171875 L 9.839844 8.183594 C 10.058594 8.1875 10.246094 8.1875 10.25 8.175781 C 10.261719 8.164062 10.175781 7.808594 10.066406 7.375 C 9.914062 6.789062 9.863281 6.625 9.84375 6.6875 Z M 9.84375 6.6875 "/>
</g>
</svg>
